<?xml version="1.0" encoding="utf-8"?>
<!-- Generator: Adobe Illustrator 25.3.1, SVG Export Plug-In . SVG Version: 6.00 Build 0)  -->
<svg version="1.1" id="Layer_1" xmlns="http://www.w3.org/2000/svg" xmlns:xlink="http://www.w3.org/1999/xlink" x="0px" y="0px"
	 viewBox="0 0 32 32" style="enable-background:new 0 0 32 32;" xml:space="preserve">
<style type="text/css">
	.st0{fill:#FFFFFF;}
	.st1{fill:none;stroke:#FFFFFF;stroke-width:2;stroke-linecap:round;stroke-linejoin:round;}
</style>
<path class="st0" d="M10,29c1.1,0,2-0.9,2-2s-0.9-2-2-2c-1.1,0-2,0.9-2,2S8.9,29,10,29z"/>
<path class="st0" d="M23,29c1.1,0,2-0.9,2-2s-0.9-2-2-2s-2,0.9-2,2S21.9,29,23,29z"/>
<path class="st1" d="M5.3,9h22.4l-3.3,11.5c-0.1,0.4-0.4,0.8-0.7,1c-0.3,0.3-0.8,0.4-1.2,0.4h-12c-0.4,0-0.9-0.1-1.2-0.4
	c-0.3-0.3-0.6-0.6-0.7-1L4.1,4.7C4,4.5,3.9,4.3,3.7,4.2C3.5,4.1,3.3,4,3.1,4H1"/>
</svg>
